<svg xmlns="http://www.w3.org/2000/svg" xmlns:xlink="http://www.w3.org/1999/xlink">
  <symbol id="chevron-right" viewBox="0 0 16 16">
    <path d="M4.646 1.646a.5.5 0 0 1 .708 0l6 6a.5.5 0 0 1 0 .708l-6 6a.5.5 0 0 1-.708-.708L10.293 8 4.646 2.354a.5.5 0 0 1 0-.708"/>
  </symbol>

  <symbol id="chevron-left" viewBox="0 0 16 16">
    <path d="M11.354 1.646a.5.5 0 0 0-.708 0l-6 6a.5.5 0 0 0 0 .708l6 6a.5.5 0 0 0 .708-.708L5.707 8l5.647-5.646a.5.5 0 0 0 0-.708"/>
  </symbol>

  <symbol id="chevron-up" viewBox="0 0 16 16">
    <path d="M1.646 11.354a.5.5 0 0 0 .708 0L8 5.707l5.646 5.647a.5.5 0 0 0 .708-.708l-6-6a.5.5 0 0 0-.708 0l-6 6a.5.5 0 0 0 0 .708"/>
  </symbol>

  <symbol id="chevron-down" viewBox="0 0 16 16">
    <path d="M1.646 4.646a.5.5 0 0 1 .708 0L8 10.293l5.646-5.647a.5.5 0 0 1 .708.708l-6 6a.5.5 0 0 1-.708 0l-6-6a.5.5 0 0 1 0-.708"/>
  </symbol>
</svg>
