<svg xmlns="http://www.w3.org/2000/svg" xmlns:xlink="http://www.w3.org/1999/xlink">
  <symbol id="book" viewBox="0 0 432 512">
    <path d="M67 512h362v-43H67q-22 0-22-21t22-21h362V0H67Q39 0 21 18.5T3 64v363h4q-4 12-4 21q0 27 18 45.5T67 512zM45 64q0-21 22-21h320v341H67q-8 0-22 4V64zm86 107h192v42H131v-42zm0-86h192v43H131V85z"/>
  </symbol>

  <symbol id="bookmark" viewBox="0 0 16 16">
    <path d="M2 0H14V16H12L8 12L4 16H2V0Z"/>
  </symbol>

  <symbol fill="none" id="clock" viewBox="0 0 24 24">
    <path d="M12 7V12L14.5 10.5M21 12C21 16.9706 16.9706 21 12 21C7.02944 21 3 16.9706 3 12C3 7.02944 7.02944 3 12 3C16.9706 3 21 7.02944 21 12Z" stroke="currentColor" stroke-width="2" stroke-linecap="round" stroke-linejoin="round"/>
  </symbol>

  <symbol id="group" viewBox="-3 0 32 32">
    <path d="M20.906 20.75c1.313 0.719 2.063 2 1.969 3.281-0.063 0.781-0.094 0.813-1.094 0.938-0.625 0.094-4.563 0.125-8.625 0.125-4.594 0-9.406-0.094-9.75-0.188-1.375-0.344-0.625-2.844 1.188-4.031 1.406-0.906 4.281-2.281 5.063-2.438 1.063-0.219 1.188-0.875 0-3-0.281-0.469-0.594-1.906-0.625-3.406-0.031-2.438 0.438-4.094 2.563-4.906 0.438-0.156 0.875-0.219 1.281-0.219 1.406 0 2.719 0.781 3.25 1.938 0.781 1.531 0.469 5.625-0.344 7.094-0.938 1.656-0.844 2.188 0.188 2.469 0.688 0.188 2.813 1.188 4.938 2.344zM3.906 19.813c-0.5 0.344-0.969 0.781-1.344 1.219-1.188 0-2.094-0.031-2.188-0.063-0.781-0.188-0.344-1.625 0.688-2.25 0.781-0.5 2.375-1.281 2.813-1.375 0.563-0.125 0.688-0.469 0-1.656-0.156-0.25-0.344-1.063-0.344-1.906-0.031-1.375 0.25-2.313 1.438-2.719 1-0.375 2.125 0.094 2.531 0.938 0.406 0.875 0.188 3.125-0.25 3.938-0.5 0.969-0.406 1.219 0.156 1.375 0.125 0.031 0.375 0.156 0.719 0.313-1.375 0.563-3.25 1.594-4.219 2.188zM24.469 18.625c0.75 0.406 1.156 1.094 1.094 1.813-0.031 0.438-0.031 0.469-0.594 0.531-0.156 0.031-0.875 0.063-1.813 0.063-0.406-0.531-0.969-1.031-1.656-1.375-1.281-0.75-2.844-1.563-4-2.063 0.313-0.125 0.594-0.219 0.719-0.25 0.594-0.125 0.688-0.469 0-1.656-0.125-0.25-0.344-1.063-0.344-1.906-0.031-1.375 0.219-2.313 1.406-2.719 1.031-0.375 2.156 0.094 2.531 0.938 0.406 0.875 0.25 3.125-0.188 3.938-0.5 0.969-0.438 1.219 0.094 1.375 0.375 0.125 1.563 0.688 2.75 1.313z"></path>
  </symbol>

  <symbol id="warehouse" viewBox="-0 -64 640 640">
    <path d="M504 352H136.4c-4.4 0-8 3.6-8 8l-.1 48c0 4.4 3.6 8 8 8H504c4.4 0 8-3.6 8-8v-48c0-4.4-3.6-8-8-8zm0 96H136.1c-4.4 0-8 3.6-8 8l-.1 48c0 4.4 3.6 8 8 8h368c4.4 0 8-3.6 8-8v-48c0-4.4-3.6-8-8-8zm0-192H136.6c-4.4 0-8 3.6-8 8l-.1 48c0 4.4 3.6 8 8 8H504c4.4 0 8-3.6 8-8v-48c0-4.4-3.6-8-8-8zm106.5-139L338.4 3.7a48.15 48.15 0 0 0-36.9 0L29.5 117C11.7 124.5 0 141.9 0 161.3V504c0 4.4 3.6 8 8 8h80c4.4 0 8-3.6 8-8V256c0-17.6 14.6-32 32.6-32h382.8c18 0 32.6 14.4 32.6 32v248c0 4.4 3.6 8 8 8h80c4.4 0 8-3.6 8-8V161.3c0-19.4-11.7-36.8-29.5-44.3z"/>
  </symbol>

  <symbol id="external-link" viewBox="0 0 24 24" fill="none">
    <path d="M10.0002 5H8.2002C7.08009 5 6.51962 5 6.0918 5.21799C5.71547 5.40973 5.40973 5.71547 5.21799 6.0918C5 6.51962 5 7.08009 5 8.2002V15.8002C5 16.9203 5 17.4801 5.21799 17.9079C5.40973 18.2842 5.71547 18.5905 6.0918 18.7822C6.5192 19 7.07899 19 8.19691 19H15.8031C16.921 19 17.48 19 17.9074 18.7822C18.2837 18.5905 18.5905 18.2839 18.7822 17.9076C19 17.4802 19 16.921 19 15.8031V14M20 9V4M20 4H15M20 4L13 11" stroke="currentColor" stroke-width="2" stroke-linecap="round" stroke-linejoin="round"/>
  </symbol>
</svg>
